<svg viewBox="0 0 2560 2560" fill="none"
  xmlns="http://www.w3.org/2000/svg" preserveAspectRatio="xMidYMid slice">
  <g clip-path="url(#clip0_22_20)">
    <path fill-rule="evenodd" clip-rule="evenodd" d="M1275.74 1282.21C1318.1 1244.17 1359.9 1205.75 1355.57 1141.6C1351.02 1076.92 1303.5 1044.8 1255.97 1012.68C1208.45 980.545 1160.92 948.412 1156.37 883.742C1151.82 819.058 1194.44 780.628 1237.06 742.198C1279.68 703.768 1322.3 665.338 1317.75 600.655C1313.2 535.984 1265.68 503.952 1218.15 471.908C1170.62 439.864 1123.09 407.833 1118.54 343.162C1114.09 278.39 1156.71 239.96 1199.31 201.543C1241.9 163.138 1284.48 124.759 1279.93 60.0752C1275.38 -4.60828 1227.85 -36.7283 1180.32 -68.861C1132.8 -100.981 1085.27 -133.114 1080.72 -197.785C1076.76 -254.131 1124.08 -282.45 1171.27 -310.68C1232.42 -347.272 1293.34 -383.726 1242.11 -480.859C608.689 -1680.5 2337.51 -705.636 1488.21 -363.478C1418.33 -335.349 1349.49 -293.435 1340.66 -209.175C1333.83 -144.695 1375.07 -104.782 1416.31 -64.8697C1457.55 -24.9573 1498.79 14.9425 1491.96 79.4106C1485.14 143.891 1436.5 174.326 1387.87 204.761C1339.25 235.196 1290.62 265.631 1283.79 330.099C1276.96 394.58 1318.2 434.492 1359.44 474.404C1400.68 514.317 1441.92 554.217 1435.1 618.698C1428.27 683.166 1379.64 713.6 1331.01 744.035C1282.38 774.47 1233.75 804.905 1226.92 869.386C1220.1 933.854 1261.34 973.754 1302.57 1013.67C1343.81 1053.58 1385.06 1093.49 1378.23 1157.97C1372.14 1220.55 1326.16 1250.97 1279 1280.46C1330.62 1256.71 1381.77 1232.39 1396.61 1169.95C1411.42 1106.82 1375.55 1062.07 1339.67 1017.3C1303.8 972.537 1267.92 927.785 1282.74 864.66C1297.56 801.535 1349.65 777.448 1401.75 753.361C1453.84 729.287 1505.93 705.2 1520.75 642.075C1535.57 578.95 1499.66 534.273 1463.76 489.597C1427.86 444.92 1391.95 400.256 1406.77 337.144C1421.71 273.955 1473.8 249.868 1525.87 225.794C1577.93 201.733 1629.97 177.684 1644.78 114.559C1659.6 51.4339 1623.72 6.66857 1587.85 -38.0967C1551.97 -82.862 1516.1 -127.615 1530.92 -190.727C1543.82 -245.717 1597.41 -258.755 1650.85 -271.756C1720.1 -288.595 1789.08 -305.371 1768.93 -413.312C1519.35 -1746.69 2881.77 -303.597 1969.21 -228.308C1894.13 -222.137 1815.96 -202.498 1782.56 -124.624C1756.94 -65.0598 1784.5 -14.7194 1812.07 35.6083C1839.63 85.936 1867.2 136.264 1841.57 195.816C1815.95 255.38 1760.49 270.053 1705.02 284.713C1649.56 299.373 1594.1 314.045 1568.47 373.61C1542.85 433.174 1570.42 483.515 1597.98 533.842C1625.54 584.17 1653.11 634.498 1627.49 694.05C1601.86 753.614 1546.4 768.287 1490.94 782.947C1435.47 797.607 1380.01 812.279 1354.38 871.844C1328.76 931.408 1356.33 981.749 1383.89 1032.08C1411.46 1082.4 1439.02 1132.73 1413.4 1192.28C1389.05 1250.23 1336.17 1265.68 1282.43 1279.86C1338.73 1272.48 1394.73 1264.35 1427.38 1209.16C1460.24 1153.26 1439.23 1099.88 1418.23 1046.51C1397.23 993.14 1376.22 939.758 1409.08 883.856C1441.93 827.94 1498.83 820.363 1555.72 812.786C1612.61 805.222 1669.5 797.645 1702.35 741.742C1735.2 685.839 1714.15 632.546 1693.09 579.241C1672.04 525.936 1650.98 472.631 1683.83 416.728C1716.82 360.8 1773.71 353.223 1830.57 345.658C1887.43 338.094 1944.25 330.53 1977.11 274.627C2009.96 218.724 1988.96 165.343 1967.95 111.974C1946.95 58.6054 1925.95 5.22412 1958.8 -50.6786C1987.42 -99.3718 2042.46 -95.9508 2097.35 -92.5424C2168.48 -88.1203 2239.34 -83.711 2252.08 -192.792C2408.75 -1540.24 3282.47 241.556 2388.56 43.2106C2315.02 26.8782 2234.54 22.4942 2179.57 86.975C2137.45 136.276 2148.86 192.509 2160.28 248.741C2171.7 304.973 2183.11 361.218 2140.99 410.519C2098.87 459.821 2041.55 457.413 1984.23 454.993C1926.91 452.573 1869.59 450.153 1827.47 499.454C1785.35 548.756 1796.77 604.988 1808.18 661.22C1819.6 717.452 1831.02 773.697 1788.9 822.999C1746.78 872.3 1689.46 869.88 1632.14 867.46C1574.82 865.04 1517.5 862.62 1475.38 911.921C1433.26 961.222 1444.67 1017.45 1456.09 1073.69C1467.51 1129.92 1478.92 1186.16 1436.8 1235.47C1396.36 1283.61 1341.25 1282.7 1285.69 1280.32C1341.68 1289.95 1397.62 1298.82 1445.19 1255.74C1493.13 1212.08 1488.88 1154.87 1484.63 1097.67C1480.39 1040.48 1476.14 983.269 1524.08 939.606C1572.02 895.943 1628.61 905.56 1685.19 915.165C1741.77 924.782 1798.36 934.399 1846.3 890.736C1894.24 847.06 1889.92 789.916 1885.6 732.771C1881.28 675.627 1876.96 618.482 1924.9 574.819C1972.97 531.181 2029.55 540.786 2086.1 550.39C2142.65 560.007 2199.17 569.611 2247.12 525.936C2295.06 482.273 2290.81 425.065 2286.57 367.87C2282.32 310.675 2278.07 253.48 2326.01 209.817C2367.78 171.779 2419.34 191.343 2470.75 210.856C2537.38 236.146 2603.75 261.335 2648.23 160.933C3197.08 -1079.65 3503.7 880.929 2708.66 426.763C2643.26 389.385 2567.69 361.357 2496.09 406.667C2441.25 441.283 2435.49 498.377 2429.74 555.471C2423.98 612.565 2418.22 669.659 2363.39 704.275C2308.55 738.891 2254.52 719.606 2200.49 700.322C2146.46 681.037 2092.43 661.752 2037.59 696.368C1982.75 730.985 1976.99 788.078 1971.24 845.172C1965.48 902.266 1959.72 959.347 1904.89 993.963C1850.05 1028.58 1796.02 1009.29 1741.99 990.01C1687.95 970.725 1633.92 951.441 1579.09 986.057C1524.25 1020.67 1518.49 1077.77 1512.74 1134.86C1506.98 1191.95 1501.22 1249.05 1446.39 1283.66C1393.48 1317.68 1341.09 1300.47 1288.71 1281.73C1339.36 1307.52 1390.19 1332.59 1448.42 1305.51C1507.15 1278 1520.04 1222.11 1532.93 1166.22C1545.82 1110.33 1558.71 1054.44 1617.44 1026.93C1676.17 999.424 1727.36 1025.37 1778.56 1051.31C1829.75 1077.25 1880.95 1103.18 1939.67 1075.68C1998.4 1048.17 2011.21 992.303 2024.01 936.439C2036.82 880.574 2049.62 824.722 2108.35 797.214C2167.19 769.757 2218.39 795.706 2269.55 821.63C2320.72 847.554 2371.86 873.466 2430.58 845.958C2489.31 818.45 2502.2 762.56 2515.09 706.657C2527.98 650.767 2540.87 594.877 2599.6 567.369C2650.76 543.409 2694.21 577.366 2737.53 611.235C2793.67 655.126 2849.61 698.839 2921.84 616.113C3813.61 -406.267 3525.6 1557.15 2900.8 887.91C2849.41 832.844 2785.53 783.694 2703.72 805.767C2641.08 822.593 2618.67 875.417 2596.26 928.241C2573.84 981.065 2551.43 1033.89 2488.8 1050.71C2426.17 1067.53 2380.28 1033.12 2334.38 998.702C2288.49 964.276 2242.6 929.85 2179.96 946.677C2117.33 963.503 2094.92 1016.33 2072.51 1069.15C2050.09 1121.97 2027.68 1174.8 1965.05 1191.62C1902.42 1208.44 1856.52 1174.03 1810.63 1139.61C1764.74 1105.19 1718.84 1070.76 1656.21 1087.59C1593.58 1104.41 1571.17 1157.24 1548.75 1210.06C1526.34 1262.88 1503.93 1315.71 1441.3 1332.53C1380.76 1349.34 1335.86 1317.48 1291.44 1284.13C1332.12 1323.72 1373.22 1362.61 1436.77 1354C1501.01 1345.12 1529.89 1295.56 1558.76 1245.99C1587.63 1196.43 1616.5 1146.86 1680.74 1137.98C1744.98 1129.1 1786.19 1169.03 1827.41 1208.97C1868.62 1248.91 1909.84 1288.83 1974.08 1279.95C2038.32 1271.07 2067.1 1221.51 2095.88 1171.95C2124.66 1122.38 2153.44 1072.83 2217.68 1063.94C2282.02 1055.15 2323.23 1095.09 2364.42 1135C2405.61 1174.91 2446.78 1214.8 2511.01 1205.93C2575.26 1197.05 2604.13 1147.48 2633 1097.91C2661.87 1048.35 2690.74 998.778 2754.98 989.896C2810.94 982.154 2842.38 1027.46 2873.73 1072.64C2914.35 1131.17 2954.82 1189.5 3048.32 1131.87C4202.98 419.477 3346.18 2209.48 2947.7 1385.24C2914.93 1317.43 2868.48 1251.58 2783.8 1248.43C2718.99 1245.94 2681.93 1289.76 2644.88 1333.57C2607.82 1377.39 2570.76 1421.22 2505.96 1418.73C2441.15 1416.25 2407.51 1369.79 2373.88 1323.32C2340.24 1276.86 2306.61 1230.4 2241.8 1227.91C2176.99 1225.43 2139.94 1269.25 2102.88 1313.06C2065.82 1356.88 2028.76 1400.69 1963.96 1398.22C1899.16 1395.74 1865.52 1349.27 1831.88 1302.81C1798.25 1256.35 1764.61 1209.88 1699.8 1207.4C1635 1204.92 1597.94 1248.73 1560.88 1292.55C1523.82 1336.36 1486.77 1380.18 1421.96 1377.71C1359.12 1375.83 1325.67 1332.03 1293.1 1286.98C1320.25 1336.87 1347.98 1386.25 1411.26 1396.85C1475.25 1407.39 1517.51 1368.6 1559.77 1329.81C1602.03 1291.03 1644.29 1252.23 1708.28 1262.77C1772.27 1273.31 1799.8 1323.67 1827.34 1374.02C1854.87 1424.36 1882.4 1474.7 1946.39 1485.24C2010.38 1495.78 2052.55 1456.97 2094.72 1418.16C2136.89 1379.34 2179.07 1340.53 2243.05 1351.07C2307.11 1361.73 2334.65 1412.08 2362.16 1462.4C2389.68 1512.71 2417.18 1563 2481.16 1573.54C2545.15 1584.08 2587.41 1545.3 2629.67 1506.5C2671.94 1467.71 2714.19 1428.92 2778.18 1439.46C2833.93 1448.65 2850.53 1501.23 2867.09 1553.66C2888.54 1621.6 2909.92 1689.29 3016.29 1661.93C4330.2 1323.45 2981.53 2779.39 2845.12 1874.14C2833.92 1799.66 2809.06 1723.01 2729.11 1694.93C2667.95 1673.36 2619.57 1704.24 2571.19 1735.12C2522.82 1766 2474.44 1796.86 2413.28 1775.31C2352.12 1753.74 2333.76 1699.41 2315.4 1645.07C2297.04 1590.72 2278.68 1536.38 2217.52 1514.81C2156.36 1493.26 2107.98 1524.13 2059.61 1555.01C2011.23 1585.88 1962.85 1616.76 1901.69 1595.2C1840.52 1573.63 1822.16 1519.29 1803.8 1464.94C1785.44 1410.61 1767.08 1356.27 1705.92 1334.71C1644.76 1313.15 1596.38 1344.03 1548.01 1374.91C1499.63 1405.78 1451.25 1436.66 1390.09 1415.1C1330.52 1394.66 1311.58 1342.77 1293.79 1290.01C1304.96 1345.79 1316.76 1401.29 1374.16 1430.21C1432.16 1459.23 1484.01 1434.7 1535.87 1410.17C1587.72 1385.62 1639.58 1361.08 1697.58 1390.11C1755.57 1419.13 1766.95 1475.37 1778.33 1531.62C1789.71 1587.85 1801.09 1644.09 1859.09 1673.11C1917.09 1702.14 1968.86 1677.54 2020.64 1652.96C2072.42 1628.38 2124.2 1603.8 2182.19 1632.82C2240.22 1661.97 2251.6 1718.22 2262.97 1774.42C2274.34 1830.63 2285.71 1886.81 2343.7 1915.83C2401.7 1944.84 2453.55 1920.31 2505.41 1895.78C2557.26 1871.24 2609.12 1846.7 2667.12 1875.72C2717.64 1901 2717.92 1956.14 2718.2 2011.12C2718.56 2082.37 2718.92 2153.35 2828.63 2158.72C4183.85 2224.53 2464.35 3215.73 2602.26 2310.72C2613.63 2236.27 2612.6 2155.68 2544.56 2105.18C2492.53 2066.48 2437.18 2081.63 2381.83 2096.8C2326.48 2111.97 2271.12 2127.13 2219.09 2088.43C2167.06 2049.72 2165.62 1992.38 2164.19 1935.05C2162.75 1877.7 2161.31 1820.37 2109.29 1781.66C2057.26 1742.95 2001.9 1758.12 1946.55 1773.27C1891.2 1788.44 1835.84 1803.6 1783.81 1764.89C1731.78 1726.2 1730.35 1668.86 1728.91 1611.53C1727.48 1554.18 1726.04 1496.83 1674.01 1458.13C1621.98 1419.42 1566.62 1434.58 1511.27 1449.75C1455.92 1464.92 1400.57 1480.07 1348.54 1441.38C1297.72 1404.23 1294.98 1349.11 1293.62 1293.47C1287.76 1350.02 1282.63 1406.49 1328.85 1451.08C1375.65 1495.97 1432.45 1487.9 1489.25 1479.82C1546.05 1471.73 1602.84 1463.66 1649.64 1508.56C1696.43 1553.45 1690.64 1610.53 1684.84 1667.62C1679.05 1724.72 1673.26 1781.8 1720.05 1826.69C1766.85 1871.58 1823.58 1863.43 1880.32 1855.29C1937.06 1847.14 1993.8 1838.99 2040.6 1883.88C2087.38 1928.92 2081.59 1986.01 2075.8 2043.07C2070 2100.12 2064.22 2157.14 2111.01 2202.02C2157.81 2246.91 2214.61 2238.83 2271.41 2230.76C2328.21 2222.68 2385 2214.61 2431.79 2259.49C2472.56 2298.59 2456.49 2351.34 2440.47 2403.94C2419.7 2472.1 2399.02 2540.01 2502.21 2577.64C3777.12 3041.83 1841.11 3479.33 2240.97 2655.77C2273.89 2588.02 2296.78 2510.75 2246.75 2442.37C2208.53 2390 2151.17 2388.09 2093.81 2386.19C2036.44 2384.27 1979.08 2382.36 1940.85 2329.98C1902.62 2277.6 1918.24 2222.41 1933.86 2167.21C1949.48 2112.02 1965.09 2056.83 1926.86 2004.46C1888.64 1952.08 1831.27 1950.16 1773.91 1948.25C1716.55 1946.35 1659.19 1944.44 1620.96 1892.07C1582.74 1839.69 1598.35 1784.5 1613.97 1729.3C1629.59 1674.11 1645.2 1618.92 1606.97 1566.55C1568.75 1514.17 1511.39 1512.25 1454.02 1510.35C1396.66 1508.44 1339.3 1506.53 1301.07 1454.15C1263.54 1403.63 1277.25 1350.19 1292.44 1296.64C1270.08 1348.92 1248.45 1401.31 1279.39 1457.61C1310.79 1514.33 1367.43 1523.44 1424.07 1532.55C1480.71 1541.66 1537.36 1550.77 1568.75 1607.5C1600.15 1664.23 1577.7 1717.04 1555.25 1769.85C1532.8 1822.66 1510.36 1875.47 1541.75 1932.21C1573.14 1988.94 1629.75 1997.96 1686.35 2006.98C1742.96 2016.01 1799.57 2025.03 1830.96 2081.77C1862.31 2138.63 1839.86 2191.44 1817.43 2244.22C1794.99 2297 1772.57 2349.74 1803.96 2406.48C1835.36 2463.21 1892 2472.32 1948.64 2481.42C2005.28 2490.53 2061.93 2499.64 2093.32 2556.38C2120.67 2605.79 2089.7 2651.42 2058.81 2696.91C2018.79 2755.86 1978.91 2814.59 2066.32 2881.09C3146.49 3702 1167.75 3546.54 1793.66 2878.35C1845.17 2823.38 1889.92 2756.37 1862.41 2676.24C1841.41 2614.89 1787.19 2596.07 1732.96 2577.26C1678.74 2558.46 1624.52 2539.64 1603.53 2478.3C1582.54 2416.96 1613.8 2368.88 1645.07 2320.79C1676.34 2272.69 1707.61 2224.6 1686.61 2163.25C1665.62 2101.89 1611.4 2083.09 1557.18 2064.28C1502.95 2045.46 1448.73 2026.66 1427.74 1965.31C1406.74 1903.95 1438.01 1855.86 1469.28 1807.76C1500.55 1759.67 1531.81 1711.59 1510.82 1650.25C1489.83 1588.91 1435.61 1570.1 1381.39 1551.29C1327.16 1532.48 1272.94 1513.66 1251.95 1452.31C1231.03 1392.85 1260.09 1345.8 1290.51 1299.1C1253.62 1342.47 1217.32 1386.14 1230.21 1449.16C1243.39 1512.64 1294.79 1538.1 1346.19 1563.57C1397.59 1589.05 1449 1614.52 1462.17 1678.01C1475.35 1741.5 1438.26 1785.29 1401.18 1829.1C1364.09 1872.89 1327.01 1916.68 1340.18 1980.16C1353.36 2043.64 1404.75 2069.01 1456.14 2094.39C1507.54 2119.77 1558.93 2145.15 1572.11 2208.64C1585.2 2272.24 1548.11 2316.03 1511.05 2359.81C1473.98 2403.57 1436.94 2447.31 1450.11 2510.79C1463.29 2574.28 1514.69 2599.75 1566.1 2625.22C1617.5 2650.68 1668.9 2676.15 1682.08 2739.64C1693.56 2794.95 1650.46 2829.35 1607.48 2863.65C1551.79 2908.11 1496.3 2952.4 1560.09 3041.79C2348.56 4145.75 504.681 3411.28 1300.47 2958.43C1365.95 2921.19 1428.56 2870.44 1426.01 2785.75C1424.14 2720.94 1377.92 2686.92 1331.71 2652.9C1285.49 2618.88 1239.27 2584.85 1237.4 2520.04C1235.52 2455.21 1279.64 2418.53 1323.75 2381.86C1367.86 2345.2 1411.97 2308.53 1410.09 2243.72C1408.22 2178.91 1362 2144.89 1315.79 2110.87C1269.57 2076.83 1223.36 2042.81 1221.48 1978C1219.61 1913.19 1263.72 1876.51 1307.83 1839.84C1351.94 1803.17 1396.05 1766.5 1394.18 1701.69C1392.3 1636.88 1346.09 1602.85 1299.87 1568.83C1253.65 1534.81 1207.44 1500.78 1205.56 1435.97C1203.21 1373.06 1244.79 1336.75 1287.62 1301.19C1239.59 1331.66 1192.08 1362.63 1185.73 1426.55C1179.51 1491.09 1221.06 1530.64 1262.61 1570.18C1304.16 1609.74 1345.71 1649.3 1339.49 1713.83C1333.26 1778.36 1284.86 1809.22 1236.47 1840.06C1188.07 1870.91 1139.67 1901.75 1133.45 1966.29C1127.23 2030.83 1168.79 2070.28 1210.36 2109.74C1251.92 2149.21 1293.49 2188.68 1287.27 2253.22C1280.94 2317.83 1232.54 2348.67 1184.17 2379.5C1135.8 2410.32 1087.46 2441.14 1081.23 2505.67C1075.01 2570.2 1116.56 2609.76 1158.11 2649.32C1199.66 2688.86 1241.21 2728.41 1234.98 2792.95C1229.56 2849.17 1178.2 2869.27 1126.99 2889.31C1060.63 2915.27 994.512 2941.13 1028.95 3045.41C1454.97 4333.33 -88.5595 3085.77 805.684 2888.9C879.26 2872.74 954.09 2842.8 976.75 2761.16C994.16 2698.71 960.099 2652.52 926.037 2606.34C891.976 2560.15 857.915 2513.97 875.326 2451.5C892.736 2389.04 945.735 2367.08 998.734 2345.11C1051.73 2323.15 1104.73 2301.19 1122.14 2238.74C1139.55 2176.27 1105.49 2130.09 1071.43 2083.9C1037.36 2037.72 1003.3 1991.53 1020.71 1929.08C1038.12 1866.63 1091.12 1844.66 1144.12 1822.7C1197.12 1800.74 1250.12 1778.77 1267.53 1716.32C1284.94 1653.86 1250.87 1607.68 1216.81 1561.49C1182.75 1515.31 1148.69 1469.12 1166.1 1406.66C1182.46 1346 1232.76 1323.6 1284.1 1302.35C1229.3 1317.2 1174.91 1332.76 1149.95 1391.82C1124.88 1451.63 1152.85 1501.71 1180.82 1551.8C1208.79 1601.89 1236.75 1651.96 1211.69 1711.75C1186.62 1771.55 1131.26 1786.68 1075.9 1801.8C1020.54 1816.93 965.17 1832.06 940.103 1891.87C915.037 1951.67 943.048 2001.67 971.058 2051.67C999.068 2101.67 1027.08 2151.67 1002.01 2211.46C976.823 2271.3 921.457 2286.43 866.124 2301.55C810.792 2316.66 755.493 2331.78 730.428 2391.57C705.362 2451.38 733.329 2501.46 761.296 2551.55C789.263 2601.62 817.23 2651.7 792.165 2711.49C770.33 2763.58 715.323 2767.56 660.474 2771.54C589.392 2776.68 518.579 2781.81 520.58 2891.6C545.9 4247.89 -558.737 2599.2 353.7 2676.01C428.766 2682.35 509.109 2675.91 554.939 2604.65C590.073 2550.16 571.223 2495.96 552.373 2441.77C533.523 2387.57 514.673 2333.36 549.808 2278.85C584.94 2224.36 642.064 2219.07 699.188 2213.8C756.317 2208.52 813.447 2203.23 848.582 2148.73C883.716 2094.23 864.866 2040.04 846.016 1985.83C827.166 1931.63 808.316 1877.43 843.449 1822.94C878.585 1768.43 935.715 1763.15 992.844 1757.86C1049.97 1752.59 1107.09 1747.31 1142.22 1692.81C1177.36 1638.3 1158.51 1584.1 1139.66 1529.89C1120.81 1475.7 1101.96 1421.51 1137.09 1367.01C1170.76 1313.81 1225.63 1307.4 1281.08 1302.3C1224.22 1300.25 1167.5 1298.89 1126.07 1348.03C1084.41 1397.71 1096.29 1453.83 1108.16 1509.95C1120.04 1566.07 1131.91 1622.19 1090.25 1671.88C1048.6 1721.56 991.237 1719.62 933.879 1717.68C876.516 1715.73 819.153 1713.78 777.494 1763.48C735.835 1813.17 747.775 1869.22 759.715 1925.28C771.655 1981.33 783.593 2037.38 741.935 2087.07C700.148 2136.75 642.787 2134.81 585.458 2132.87C528.13 2130.92 470.834 2128.97 429.176 2178.67C387.517 2228.36 399.392 2284.48 411.267 2340.6C423.142 2396.71 435.016 2452.82 393.358 2502.51C357.069 2545.8 303.351 2533.32 249.789 2520.86C180.373 2504.73 111.218 2488.67 80.5973 2594.12C-177.05 3483.03 -522.648 2880.28 -446.745 2516.55C-931.592 2949.37 -887.532 1466.22 -246.746 1956.79C-186.945 2002.6 -115.812 2040.49 -38.7799 2005.18C20.2021 1978.23 33.5583 1922.43 46.9145 1866.61C60.2691 1810.8 73.6253 1755 132.607 1728.05C191.589 1701.1 242.548 1727.44 293.507 1753.78C344.467 1780.12 395.427 1806.47 454.409 1779.52C513.391 1752.57 526.747 1696.76 540.103 1640.95C553.458 1585.14 566.814 1529.33 625.796 1502.38C684.778 1475.43 735.737 1501.78 786.696 1528.12C837.656 1554.46 888.616 1580.8 947.598 1553.85C1006.58 1526.9 1019.94 1471.1 1033.29 1415.29C1046.65 1359.47 1060 1303.67 1118.99 1276.72C1176.04 1250.06 1225.71 1274.22 1275.16 1299.83C1228.39 1267.45 1181.34 1235.73 1119.96 1254.78C1058.08 1274.17 1037.81 1327.83 1017.55 1381.49C997.281 1435.15 977.018 1488.81 915.133 1508.2C853.249 1527.59 805.992 1495.02 758.732 1462.47C711.475 1429.92 664.217 1397.36 602.333 1416.74C540.449 1436.13 520.274 1489.78 500.1 1543.42C479.924 1597.06 459.749 1650.69 397.865 1670.09C335.87 1689.42 288.611 1656.85 241.378 1624.3C194.149 1591.76 146.947 1559.24 85.0646 1578.62C23.1804 1598.01 2.9156 1651.68 -17.3492 1705.34C-37.614 1759 -57.8772 1812.68 -119.761 1832.06C-173.669 1848.95 -212.174 1809.48 -250.57 1770.11C-300.327 1719.1 -349.898 1668.28 -432.562 1740.59C-1453.31 2634.29 -904.767 727.171 -375.287 1474.07C-331.743 1535.52 -275.028 1592.78 -190.991 1581.87C-126.67 1573.58 -97.3786 1524.24 -68.0888 1474.9C-38.7989 1425.55 -9.50751 1376.2 54.8132 1367.92C119.136 1359.64 160.003 1399.9 200.87 1440.16C241.737 1480.41 282.602 1520.66 346.923 1512.38C411.245 1504.1 440.535 1454.76 469.826 1405.42C499.116 1356.06 528.406 1306.71 592.728 1298.44C657.049 1290.16 697.914 1330.41 738.781 1370.66C779.648 1410.92 820.515 1451.18 884.838 1442.9C949.16 1434.61 978.45 1385.27 1007.74 1335.93C1037.03 1286.58 1066.32 1237.23 1130.64 1228.95C1193.05 1220.37 1233.33 1258.21 1272.98 1297.32C1237.89 1252.55 1202.35 1208.29 1138.06 1208.29C1073.21 1208.48 1037.96 1253.72 1002.71 1298.97C967.451 1344.23 932.197 1389.49 867.344 1389.69C802.492 1389.88 767.002 1344.79 731.513 1299.69C696.023 1254.6 660.532 1209.49 595.679 1209.69C530.826 1209.9 495.664 1255.16 460.502 1300.41C425.339 1345.67 390.179 1390.93 325.327 1391.12C260.389 1391.23 224.898 1346.12 189.427 1301.05C153.959 1255.98 118.511 1210.93 53.6615 1211.12C-11.1899 1211.32 -46.4426 1256.56 -81.6952 1301.81C-116.95 1347.07 -152.204 1392.33 -217.057 1392.53C-273.55 1392.71 -298.632 1343.6 -323.642 1294.62C-356.054 1231.17 -388.344 1167.96 -488.721 1212.53C-1728.44 1763.83 -639.485 104.752 -355.051 974.919C-331.669 1046.52 -294.463 1118.01 -210.964 1132.47C-147.076 1143.62 -104.479 1105.15 -61.8835 1066.69C-19.2882 1028.24 23.3071 989.769 87.1954 1000.92C151.084 1012.06 178.189 1062.6 205.296 1113.16C232.403 1163.71 259.508 1214.27 323.396 1225.4C387.283 1236.54 429.878 1198.09 472.472 1159.63C515.069 1121.18 557.666 1082.71 621.555 1093.86C685.445 1105 712.551 1155.55 739.656 1206.11C766.761 1256.65 793.868 1307.21 857.755 1318.34C921.644 1329.48 964.241 1291.01 1006.84 1252.56C1049.43 1214.1 1092.03 1175.65 1155.92 1186.78C1218 1197.07 1245.27 1245.03 1271.54 1294.08C1251.31 1240.96 1230.46 1188.27 1169.11 1169.26C1107.11 1150.24 1060.04 1183.02 1012.96 1215.8C965.882 1248.58 918.804 1281.36 856.804 1262.34C794.803 1243.32 774.265 1189.74 753.728 1136.15C733.192 1082.57 712.657 1029 650.657 1009.98C588.657 990.96 541.664 1023.78 494.671 1056.59C447.678 1089.41 400.685 1122.22 338.685 1103.2C276.633 1084.05 256.097 1030.47 235.572 976.921C215.048 923.375 194.536 869.855 132.538 850.836C70.5377 831.817 23.4608 864.596 -23.6162 897.375C-70.6947 930.154 -117.773 962.933 -179.775 943.914C-233.783 927.341 -243.191 873.01 -252.571 818.843C-264.728 748.635 -276.839 678.693 -385.92 691.554C-1733.34 850.975 -201.712 -411.17 -187.851 504.193C-186.731 579.495 -172.373 658.787 -96.9081 697.331C-39.187 726.892 12.8927 702.78 64.971 678.655C117.049 654.53 169.127 630.418 226.848 659.978C284.568 689.539 295.48 745.847 306.391 802.155C317.305 858.464 328.217 914.785 385.938 944.345C443.659 973.906 495.737 949.781 547.815 925.669C599.893 901.556 651.972 877.432 709.693 906.992C767.414 936.553 778.325 992.874 789.239 1049.18C800.151 1105.49 811.063 1161.8 868.782 1191.36C926.503 1220.92 978.581 1196.81 1030.66 1172.68C1082.74 1148.56 1134.82 1124.45 1192.54 1154.01C1248.83 1182.24 1260.64 1236.16 1271.2 1290.84C1267.61 1234.06 1263.34 1177.5 1210.35 1141.16C1156.77 1104.64 1102.09 1122 1047.41 1139.37C992.734 1156.74 938.056 1174.1 884.473 1137.58C830.89 1101.06 827.15 1043.8 823.411 986.538C819.671 929.28 815.931 872.021 762.347 835.492C708.764 798.975 654.158 816.397 599.551 833.819C544.945 851.241 490.34 868.664 436.757 832.147C383.159 795.491 379.42 738.219 375.683 680.986C371.946 623.766 368.212 566.571 314.631 530.054C261.048 493.524 206.37 510.896 151.692 528.255C97.0157 545.626 42.3378 562.997 -11.2453 526.468C-57.9199 494.652 -50.8086 439.978 -43.7178 385.457C-34.5296 314.793 -25.3746 244.407 -133.371 224.388C-1467.56 -22.3725 369.279 -774.298 111.321 104.08C90.0786 176.341 80.2994 256.33 140.959 315.49C187.333 360.825 244.219 353.21 301.105 345.595C357.991 337.98 414.877 330.365 461.251 375.7C507.623 421.023 501.362 478.028 495.102 535.046C488.841 592.064 482.579 649.082 528.952 694.417C575.324 739.74 632.209 732.125 689.094 724.51C745.981 716.895 802.871 709.28 849.244 754.615C895.618 799.938 889.357 856.956 883.095 913.974C876.833 970.991 870.572 1028.01 916.946 1073.33C963.319 1118.67 1020.21 1111.05 1077.1 1103.44C1133.98 1095.82 1190.87 1088.21 1237.24 1133.53C1282.59 1177.12 1277.95 1232.07 1271.85 1287.36C1285.23 1232.13 1297.86 1176.89 1258.04 1126.51C1217.69 1075.75 1160.32 1076.16 1102.95 1076.55C1045.58 1076.94 988.21 1077.35 947.853 1026.59C907.496 975.832 920.889 920.03 934.281 864.229C947.674 808.427 961.065 752.639 920.708 701.893C880.353 651.134 823.034 651.603 765.715 652.072C708.397 652.541 651.078 653.022 610.721 602.264C570.39 551.379 583.784 495.577 597.17 439.814C610.555 384.05 623.933 328.325 583.576 277.566C543.221 226.821 485.852 227.213 428.482 227.606C371.113 227.999 313.744 228.392 273.388 177.646C238.234 133.425 261.225 83.3005 284.151 33.3276C313.861 -31.432 343.458 -95.9508 246.243 -147.064C-954.961 -777.858 1022.22 -952.066 515.595 -189.498C473.896 -126.766 440.858 -53.2635 481.269 21.2018C512.132 78.2322 568.72 87.8112 625.31 97.3902C681.898 106.957 738.487 116.536 769.35 173.566C800.211 230.584 777.34 283.179 754.468 335.775C731.595 388.384 708.723 440.992 739.586 498.022C770.449 555.04 827.037 564.619 883.626 574.198C940.216 583.777 996.806 593.356 1027.67 650.374C1058.53 707.405 1035.66 760.013 1012.79 812.621C989.913 865.217 967.042 917.813 997.903 974.831C1028.77 1031.86 1085.35 1041.44 1141.94 1051.02C1198.53 1060.6 1255.12 1070.16 1285.99 1127.19C1316.43 1182.32 1295.62 1233.51 1273.38 1284.58C1302.56 1235.72 1331.1 1186.65 1307.96 1126.66C1284.45 1066.22 1229.54 1049.61 1174.63 1033C1119.72 1016.39 1064.8 999.779 1041.3 939.353C1017.79 878.927 1047.11 829.6 1076.43 780.273C1105.76 730.947 1135.08 681.62 1111.57 621.194C1088.06 560.755 1033.17 544.232 978.285 527.71C923.401 511.187 868.517 494.665 845.01 434.239C821.564 373.698 850.887 324.372 880.194 275.07C909.5 225.769 938.79 176.493 915.282 116.067C891.775 55.6405 836.862 39.0293 781.95 22.4181C727.039 5.80697 672.127 -10.8042 648.619 -71.2304C628.142 -123.864 664.949 -164.93 701.651 -205.868C749.218 -258.933 796.605 -311.795 718.892 -389.402C-241.518 -1347.62 1698.55 -928.474 988.728 -350.161C930.318 -302.596 876.985 -242.182 893.519 -159.088C906.102 -95.482 957.314 -69.5705 1008.53 -43.6718C1059.74 -17.7731 1110.95 8.13836 1123.53 71.7449C1136.11 135.351 1098.68 178.824 1061.25 222.284C1023.83 265.757 986.394 309.23 998.976 372.837C1011.56 436.443 1062.77 462.342 1113.98 488.253C1165.2 514.165 1216.41 540.064 1228.99 603.67C1241.57 667.277 1204.14 710.737 1166.71 754.21C1129.28 797.683 1091.85 841.143 1104.43 904.749C1117.02 968.356 1168.23 994.255 1219.44 1020.17C1270.65 1046.08 1321.87 1071.98 1334.45 1135.58C1347.2 1197.29 1312.13 1240 1275.74 1282.21ZM1275.94 1300.24C1276.7 1300.63 1277.46 1301.02 1278.22 1301.42C1279.46 1301.68 1280.71 1301.95 1281.95 1302.21L1285.11 1301.94L1288.31 1300.6L1290.94 1298.43L1292.69 1295.75L1293.6 1292.55L1293.52 1289.19L1292.49 1286.15L1290.57 1283.47L1287.81 1281.41L1284.67 1280.28L1281.39 1280.14L1278.14 1280.99L1275.21 1282.83L1273.04 1285.34L1271.74 1288.31L1271.37 1291.71L1271.99 1294.93L1273.58 1297.92L1275.94 1300.24ZM1275.75 1300.9C1222.23 1284.11 1168.68 1268.67 1116.43 1304.55C1063.07 1341.39 1059.61 1398.64 1056.16 1455.88C1052.7 1513.14 1049.24 1570.4 995.882 1607.26C942.521 1644.11 887.735 1627 832.951 1609.89C778.167 1592.79 723.383 1575.68 670.022 1612.53C616.66 1649.38 613.283 1706.58 609.905 1763.79C606.528 1821 603.152 1878.21 549.791 1915.07C496.303 1951.89 441.515 1934.77 386.76 1917.66C332.009 1900.57 277.289 1883.49 223.929 1920.34C170.567 1957.18 167.111 2014.44 163.654 2071.69C160.197 2128.95 156.741 2186.21 103.378 2223.05C56.8948 2255.15 8.4222 2228.85 -39.911 2202.63C-102.548 2168.64 -164.95 2134.79 -222.483 2228.32C-239.238 2255.59 -255.622 2281.12 -271.632 2304.97C-206.41 2287.84 -121.91 2295.46 -14.9175 2338.77C54.9019 2367.07 133.547 2384.7 198.435 2330.21C248.138 2288.56 246.191 2231.21 244.246 2173.86C242.299 2116.52 240.352 2059.17 290.055 2017.52C339.759 1975.87 395.888 1987.75 452.017 1999.62C508.144 2011.49 564.272 2023.36 613.977 1981.71C663.68 1940.07 661.733 1882.72 659.786 1825.37C657.839 1768.02 655.892 1710.66 705.598 1669.02C755.303 1627.37 811.432 1639.24 867.559 1651.11C923.686 1662.98 979.814 1674.86 1029.52 1633.21C1079.22 1591.56 1077.28 1534.21 1075.33 1476.87C1073.38 1419.52 1071.44 1362.17 1121.14 1320.52C1168.45 1280.18 1221.97 1289.53 1275.75 1300.9Z" fill="black"/>
  </g>
  <defs>
    <clipPath id="clip0_22_20">
      <rect width="2560" height="2560" fill="white"/>
    </clipPath>
  </defs>
</svg>
